<svg width="130" height="130" viewBox="0 0 130 130" fill="none" xmlns="http://www.w3.org/2000/svg">
<rect width="130" height="130" rx="65" fill="url(#paint0_linear)"/>
<path d="M65.3572 40.7144C52.1486 40.7144 41.4286 51.4344 41.4286 64.6429C41.4286 77.8515 52.1486 88.5715 65.3572 88.5715C78.5657 88.5715 89.2857 77.8515 89.2857 64.6429C89.2857 51.4344 78.5657 40.7144 65.3572 40.7144ZM53.5604 79.6701C54.5893 77.5165 60.8586 75.4108 65.3572 75.4108C69.8557 75.4108 76.1489 77.5165 77.1539 79.6701C73.8997 82.2544 69.8079 83.7858 65.3572 83.7858C60.9064 83.7858 56.8147 82.2544 53.5604 79.6701ZM80.5757 76.2004C77.1539 72.0369 68.8507 70.6251 65.3572 70.6251C61.8636 70.6251 53.5604 72.0369 50.1386 76.2004C47.6979 72.994 46.2143 68.9979 46.2143 64.6429C46.2143 54.0904 54.8047 45.5001 65.3572 45.5001C75.9097 45.5001 84.5 54.0904 84.5 64.6429C84.5 68.9979 83.0164 72.994 80.5757 76.2004V76.2004ZM65.3572 50.2858C60.715 50.2858 56.9822 54.0186 56.9822 58.6608C56.9822 63.3029 60.715 67.0358 65.3572 67.0358C69.9993 67.0358 73.7322 63.3029 73.7322 58.6608C73.7322 54.0186 69.9993 50.2858 65.3572 50.2858ZM65.3572 62.2501C63.3711 62.2501 61.7679 60.6469 61.7679 58.6608C61.7679 56.6747 63.3711 55.0715 65.3572 55.0715C67.3432 55.0715 68.9464 56.6747 68.9464 58.6608C68.9464 60.6469 67.3432 62.2501 65.3572 62.2501Z" fill="white"/>
<defs>
<linearGradient id="paint0_linear" x1="130" y1="0" x2="0" y2="130" gradientUnits="userSpaceOnUse">
<stop stop-color="#348F6C"/>
<stop offset="1" stop-color="#348F6C" stop-opacity="0"/>
</linearGradient>
</defs>
</svg>
