<svg width="635" height="270" viewBox="0 0 635 270" fill="none" xmlns="http://www.w3.org/2000/svg">
<g id="Mask Group" opacity="0.1">
<rect id="Rectangle 4" x="542.5" y="285.293" width="207.597" height="207.597" transform="rotate(-135 542.5 285.293)" stroke="#10B99F"/>
<rect id="Rectangle 8" x="497.5" y="285.293" width="207.597" height="207.597" transform="rotate(-135 497.5 285.293)" stroke="#10B99F"/>
<rect id="Rectangle 9" x="452.5" y="285.293" width="207.597" height="207.597" transform="rotate(-135 452.5 285.293)" stroke="#10B99F"/>
<rect id="Rectangle 10" x="407.5" y="285.293" width="207.597" height="207.597" transform="rotate(-135 407.5 285.293)" stroke="#10B99F"/>
<rect id="Rectangle 11" x="362.5" y="285.293" width="207.597" height="207.597" transform="rotate(-135 362.5 285.293)" stroke="#10B99F"/>
<rect id="Rectangle 12" x="317.5" y="285.293" width="207.597" height="207.597" transform="rotate(-135 317.5 285.293)" stroke="#10B99F"/>
<rect id="Rectangle 13" x="272.5" y="285.293" width="207.597" height="207.597" transform="rotate(-135 272.5 285.293)" stroke="#10B99F"/>
<rect id="Rectangle 14" x="227.5" y="285.293" width="207.597" height="207.597" transform="rotate(-135 227.5 285.293)" stroke="#10B99F"/>
<rect id="Rectangle 15" x="182.5" y="285.293" width="207.597" height="207.597" transform="rotate(-135 182.5 285.293)" stroke="#10B99F"/>
<rect id="Rectangle 16" x="137.5" y="285.293" width="207.597" height="207.597" transform="rotate(-135 137.5 285.293)" stroke="#10B99F"/>
<rect id="Rectangle 17" x="92.5" y="285.293" width="207.597" height="207.597" transform="rotate(-135 92.5 285.293)" stroke="#10B99F"/>
</g>
</svg>
