<svg width="14" height="19" viewBox="0 0 14 19" fill="none" xmlns="http://www.w3.org/2000/svg">
<g clip-path="url(#clip0)">
<path d="M7 19C5.73693 17.9226 4.56619 16.7415 3.5 15.469C1.9 13.558 8.83663e-07 10.712 8.83663e-07 7.99999C-0.00141728 5.16754 1.70425 2.61338 4.32107 1.52939C6.93789 0.445393 9.95007 1.04523 11.952 3.04899C13.2685 4.3596 14.0059 6.14238 14 7.99999C14 10.712 12.1 13.558 10.5 15.469C9.43382 16.7415 8.26307 17.9226 7 19ZM7 4.99999C5.92821 4.99999 4.93782 5.57179 4.40193 6.49999C3.86603 7.42819 3.86603 8.57179 4.40193 9.49999C4.93782 10.4282 5.92821 11 7 11C8.65686 11 10 9.65684 10 7.99999C10 6.34313 8.65686 4.99999 7 4.99999Z" fill="#0047FF"/>
</g>
<defs>
<clipPath id="clip0">
<rect width="14" height="19" fill="white"/>
</clipPath>
</defs>
</svg>
