<svg width="86" height="86" viewBox="0 0 86 86" fill="none" xmlns="http://www.w3.org/2000/svg">
<path d="M40.5 4.44337C42.047 3.55021 43.953 3.55021 45.5 4.44338L75.141 21.5566C76.688 22.4498 77.641 24.1004 77.641 25.8868V60.1132C77.641 61.8996 76.688 63.5502 75.141 64.4434L45.5 81.5566C43.953 82.4498 42.047 82.4498 40.5 81.5566L10.859 64.4434C9.31197 63.5502 8.35898 61.8996 8.35898 60.1132V25.8867C8.35898 24.1004 9.31198 22.4498 10.859 21.5566L40.5 4.44337Z" fill="white"/>
<path d="M40.5 1.44338C42.047 0.550211 43.953 0.550212 45.5 1.44338L77.7391 20.0566C79.2861 20.9498 80.2391 22.6004 80.2391 24.3868V61.6132C80.2391 63.3996 79.2861 65.0502 77.7391 65.9434L45.5 84.5566C43.953 85.4498 42.047 85.4498 40.5 84.5566L8.26091 65.9434C6.7139 65.0502 5.76091 63.3996 5.76091 61.6132V24.3868C5.76091 22.6004 6.7139 20.9498 8.26091 20.0566L40.5 1.44338Z" stroke="white" stroke-linecap="round" stroke-linejoin="round" stroke-dasharray="49 6 6 6"/>
<path d="M62.5 37.5261C62.5 49.0536 54.3294 57.3419 43 57.3419C31.6706 57.3419 23.5 49.0536 23.5 37.5261C23.5 36.1204 23.7978 35.0724 24.281 34.3142C24.7608 33.5613 25.4448 33.0601 26.2843 32.7778C27.9896 32.2045 30.3503 32.5361 32.7985 33.614C35.2309 34.685 37.6676 36.4586 39.4913 38.6413C41.3159 40.8252 42.5 43.3846 42.5 46.0339L43 46.0339L43.5 46.0339C43.5 43.3846 44.6841 40.8252 46.5087 38.6413C48.3324 36.4586 50.7691 34.685 53.2015 33.614C55.6497 32.5361 58.0104 32.2045 59.7157 32.7778C60.5552 33.0601 61.2392 33.5613 61.719 34.3142C62.2022 35.0724 62.5 36.1204 62.5 37.5261Z" fill="white" stroke="#1D1D42"/>
<path d="M53 38C53 32.1935 48.8065 28 43 28C37.1936 28 33 32.1935 33 38C33 43.8064 37.1936 48 43 48C48.8065 48 53 43.8064 53 38Z" fill="#1D1D42"/>
</svg>
