<svg xmlns="http://www.w3.org/2000/svg"  viewBox="0 0 64 64" width="512px" height="512px"><radialGradient id="nMm3MyaGYpsU8H0y7pk30a" cx="31.873" cy="35.569" r="50.261" gradientUnits="userSpaceOnUse" spreadMethod="reflect"><stop offset="0" stop-color="#afeeff"/><stop offset=".193" stop-color="#bbf1ff"/><stop offset=".703" stop-color="#d7f8ff"/><stop offset="1" stop-color="#e1faff"/></radialGradient><path fill="url(#nMm3MyaGYpsU8H0y7pk30a)" d="M60,44H45l-2.6-1h6.012c1.138,0,2.202-0.721,2.497-1.821C51.355,39.516,50.096,38,48.5,38 c-0.828,0-1.5-0.672-1.5-1.5s0.672-1.5,1.5-1.5h2.912c1.139,0,2.202-0.721,2.497-1.821C54.355,31.516,53.096,29,51.5,29H51 c-1.105,0-2-0.895-2-2c0-1.105,0.895-2,2-2h9.412c1.139,0,2.202-0.721,2.497-1.821C63.355,21.516,62.096,20,60.5,20H59 c-1.105,0-2-0.895-2-2c0-1.105,0.895-2,2-2h2c1.848,0,3.319-1.693,2.94-3.605C63.657,10.972,62.32,10,60.869,10H50.5 C49.672,10,49,9.328,49,8.5S49.672,7,50.5,7h5.912c1.139,0,2.202-0.721,2.497-1.821C59.355,3.516,58.096,2,56.5,2H10.588 C9.449,2,8.386,2.721,8.091,3.821C7.645,5.484,8.904,7,10.5,7l0,0C11.881,7,13,8.119,13,9.5c0,1.381-1.119,2.5-2.5,2.5H9.588H7 c-1.65,0-3,1.35-3,3c0,1.65,1.35,3,3,3h19c0.352,0,0.685-0.073,1-0.185V29h-7.412c-1.139,0-2.202,1.721-2.497,2.821 c-0.219,0.817-0.024,1.595,0.418,2.179H2.5C1.119,34,0,35.119,0,36.5C0,37.881,1.119,39,2.5,39h1C4.881,39,6,40.119,6,41.5 C6,42.881,4.881,44,3.5,44H3c-1.657,0-3,1.343-3,3s1.343,3,3,3h6.5c1.381,0,2.5,1.119,2.5,2.5c0,1.381-1.119,2.5-2.5,2.5H8 c-1.657,0-3,1.343-3,3s1.343,3,3,3h48c1.657,0,3-1.343,3-3s-1.343-3-3-3h-0.5c-1.381,0-2.5-1.119-2.5-2.5c0-1.381,1.119-2.5,2.5-2.5 H60c1.657,0,3-1.343,3-3S61.657,44,60,44z M27,37.077L21.6,35H27V37.077z"/><linearGradient id="nMm3MyaGYpsU8H0y7pk30b" x1="33.5" x2="33.5" y1="55" y2="10" gradientUnits="userSpaceOnUse" spreadMethod="reflect"><stop offset="0" stop-color="#ffc662"/><stop offset=".004" stop-color="#ffc662"/><stop offset=".609" stop-color="#ffc582"/><stop offset="1" stop-color="#ffc491"/><stop offset="1" stop-color="#ffc491"/></linearGradient><path fill="url(#nMm3MyaGYpsU8H0y7pk30b)" d="M33.5 10A22.5 22.5 0 1 0 33.5 55A22.5 22.5 0 1 0 33.5 10Z"/><linearGradient id="nMm3MyaGYpsU8H0y7pk30c" x1="32.5" x2="32.5" y1="7" y2="46" gradientUnits="userSpaceOnUse" spreadMethod="reflect"><stop offset="0" stop-color="#ff8b67"/><stop offset=".847" stop-color="#ffa76a"/><stop offset="1" stop-color="#ffad6b"/><stop offset="1" stop-color="#ffad6b"/></linearGradient><path fill="url(#nMm3MyaGYpsU8H0y7pk30c)" d="M54,7H24C14.611,7,7,14.611,7,24l0,15.5c0,3.59,2.91,6.5,6.5,6.5h0c3.59,0,6.5-2.91,6.5-6.5 l0-5.5c0-6.075,4.925-11,11-11h15c6.627,0,12-5.373,12-12v0C58,8.791,56.209,7,54,7z"/><path fill="#717171" d="M54,33c0,2.211-1.789,4-4,4c-2.211,0-4-1.789-4-4s1.789-4,4-4C52.211,29,54,30.789,54,33z"/><path fill="#595859" d="M52,33c0,1.104-0.896,2-2,2s-2-0.896-2-2c0-1.104,0.896-2,2-2S52,31.896,52,33z"/><path fill="#9e9e9e" d="M50,31.5c0,0.828-0.672,1.5-1.5,1.5S47,32.328,47,31.5s0.672-1.5,1.5-1.5S50,30.672,50,31.5z"/><path fill="#8f8e8f" d="M48.009,32.911C48.164,32.965,48.327,33,48.5,33c0.828,0,1.5-0.672,1.5-1.5 c0-0.173-0.035-0.336-0.089-0.491C48.879,31.055,48.055,31.879,48.009,32.911z"/><g><path fill="#717171" d="M40,33c0,2.211-1.789,4-4,4c-2.211,0-4-1.789-4-4s1.789-4,4-4C38.211,29,40,30.789,40,33z"/><path fill="#595859" d="M38,33c0,1.104-0.896,2-2,2s-2-0.896-2-2c0-1.104,0.896-2,2-2S38,31.896,38,33z"/><path fill="#9e9e9e" d="M36,31.5c0,0.828-0.672,1.5-1.5,1.5S33,32.328,33,31.5s0.672-1.5,1.5-1.5S36,30.672,36,31.5z"/><path fill="#8f8e8f" d="M34.009,32.911C34.164,32.965,34.327,33,34.5,33c0.828,0,1.5-0.672,1.5-1.5 c0-0.173-0.035-0.336-0.089-0.491C34.879,31.055,34.055,31.879,34.009,32.911z"/></g><path fill="#717171" d="M45,41h-4c-0.55,0-1,0.45-1,1c0,1.657,1.343,3,3,3s3-1.343,3-3C46,41.45,45.55,41,45,41z"/></svg>