<svg width="19" height="21" viewBox="0 0 19 21" fill="none" xmlns="http://www.w3.org/2000/svg">
<path d="M9.5 16.625C9.67306 16.625 9.84223 16.5737 9.98612 16.4775C10.13 16.3814 10.2422 16.2447 10.3084 16.0848C10.3746 15.925 10.3919 15.749 10.3582 15.5793C10.3244 15.4096 10.2411 15.2537 10.1187 15.1313C9.99635 15.0089 9.84044 14.9256 9.6707 14.8918C9.50097 14.8581 9.32504 14.8754 9.16515 14.9416C9.00527 15.0078 8.86861 15.12 8.77246 15.2639C8.67632 15.4078 8.625 15.5769 8.625 15.75C8.625 15.9821 8.71719 16.2046 8.88128 16.3687C9.04538 16.5328 9.26794 16.625 9.5 16.625ZM13.875 16.625C14.0481 16.625 14.2172 16.5737 14.3611 16.4775C14.505 16.3814 14.6172 16.2447 14.6834 16.0848C14.7496 15.925 14.7669 15.749 14.7332 15.5793C14.6994 15.4096 14.6161 15.2537 14.4937 15.1313C14.3713 15.0089 14.2154 14.9256 14.0457 14.8918C13.876 14.8581 13.7 14.8754 13.5402 14.9416C13.3803 15.0078 13.2436 15.12 13.1475 15.2639C13.0513 15.4078 13 15.5769 13 15.75C13 15.9821 13.0922 16.2046 13.2563 16.3687C13.4204 16.5328 13.6429 16.625 13.875 16.625ZM13.875 13.125C14.0481 13.125 14.2172 13.0737 14.3611 12.9775C14.505 12.8814 14.6172 12.7447 14.6834 12.5848C14.7496 12.425 14.7669 12.249 14.7332 12.0793C14.6994 11.9096 14.6161 11.7537 14.4937 11.6313C14.3713 11.5089 14.2154 11.4256 14.0457 11.3918C13.876 11.3581 13.7 11.3754 13.5402 11.4416C13.3803 11.5078 13.2436 11.62 13.1475 11.7639C13.0513 11.9078 13 12.0769 13 12.25C13 12.4821 13.0922 12.7046 13.2563 12.8687C13.4204 13.0328 13.6429 13.125 13.875 13.125ZM9.5 13.125C9.67306 13.125 9.84223 13.0737 9.98612 12.9775C10.13 12.8814 10.2422 12.7447 10.3084 12.5848C10.3746 12.425 10.3919 12.249 10.3582 12.0793C10.3244 11.9096 10.2411 11.7537 10.1187 11.6313C9.99635 11.5089 9.84044 11.4256 9.6707 11.3918C9.50097 11.3581 9.32504 11.3754 9.16515 11.4416C9.00527 11.5078 8.86861 11.62 8.77246 11.7639C8.67632 11.9078 8.625 12.0769 8.625 12.25C8.625 12.4821 8.71719 12.7046 8.88128 12.8687C9.04538 13.0328 9.26794 13.125 9.5 13.125ZM15.625 2.625H14.75V1.75C14.75 1.51794 14.6578 1.29538 14.4937 1.13128C14.3296 0.967187 14.1071 0.875 13.875 0.875C13.6429 0.875 13.4204 0.967187 13.2563 1.13128C13.0922 1.29538 13 1.51794 13 1.75V2.625H6V1.75C6 1.51794 5.90781 1.29538 5.74372 1.13128C5.57962 0.967187 5.35706 0.875 5.125 0.875C4.89294 0.875 4.67038 0.967187 4.50628 1.13128C4.34219 1.29538 4.25 1.51794 4.25 1.75V2.625H3.375C2.67881 2.625 2.01113 2.90156 1.51884 3.39384C1.02656 3.88613 0.75 4.55381 0.75 5.25V17.5C0.75 18.1962 1.02656 18.8639 1.51884 19.3562C2.01113 19.8484 2.67881 20.125 3.375 20.125H15.625C16.3212 20.125 16.9889 19.8484 17.4812 19.3562C17.9734 18.8639 18.25 18.1962 18.25 17.5V5.25C18.25 4.55381 17.9734 3.88613 17.4812 3.39384C16.9889 2.90156 16.3212 2.625 15.625 2.625ZM16.5 17.5C16.5 17.7321 16.4078 17.9546 16.2437 18.1187C16.0796 18.2828 15.8571 18.375 15.625 18.375H3.375C3.14294 18.375 2.92038 18.2828 2.75628 18.1187C2.59219 17.9546 2.5 17.7321 2.5 17.5V9.625H9.5H16.5V17.5ZM16.5 7.875H2.5V5.25C2.5 5.01794 2.59219 4.79538 2.75628 4.63128C2.92038 4.46719 3.14294 4.375 3.375 4.375H4.25V5.25C4.25 5.48206 4.34219 5.70462 4.50628 5.86872C4.67038 6.03281 4.89294 6.125 5.125 6.125C5.35706 6.125 5.57962 6.03281 5.74372 5.86872C5.90781 5.70462 6 5.48206 6 5.25V4.375H13V5.25C13 5.48206 13.0922 5.70462 13.2563 5.86872C13.4204 6.03281 13.6429 6.125 13.875 6.125C14.1071 6.125 14.3296 6.03281 14.4937 5.86872C14.6578 5.70462 14.75 5.48206 14.75 5.25V4.375H15.625C15.8571 4.375 16.0796 4.46719 16.2437 4.63128C16.4078 4.79538 16.5 5.01794 16.5 5.25V7.875ZM5.125 13.125C5.29806 13.125 5.46723 13.0737 5.61112 12.9775C5.75502 12.8814 5.86717 12.7447 5.93339 12.5848C5.99962 12.425 6.01695 12.249 5.98319 12.0793C5.94943 11.9096 5.86609 11.7537 5.74372 11.6313C5.62135 11.5089 5.46544 11.4256 5.2957 11.3918C5.12597 11.3581 4.95004 11.3754 4.79015 11.4416C4.63027 11.5078 4.49361 11.62 4.39746 11.7639C4.30132 11.9078 4.25 12.0769 4.25 12.25C4.25 12.4821 4.34219 12.7046 4.50628 12.8687C4.67038 13.0328 4.89294 13.125 5.125 13.125ZM5.125 16.625C5.29806 16.625 5.46723 16.5737 5.61112 16.4775C5.75502 16.3814 5.86717 16.2447 5.93339 16.0848C5.99962 15.925 6.01695 15.749 5.98319 15.5793C5.94943 15.4096 5.86609 15.2537 5.74372 15.1313C5.62135 15.0089 5.46544 14.9256 5.2957 14.8918C5.12597 14.8581 4.95004 14.8754 4.79015 14.9416C4.63027 15.0078 4.49361 15.12 4.39746 15.2639C4.30132 15.4078 4.25 15.5769 4.25 15.75C4.25 15.9821 4.34219 16.2046 4.50628 16.3687C4.67038 16.5328 4.89294 16.625 5.125 16.625Z" fill="#0E1C3F"/>
</svg>
