<svg width="13" height="13" viewBox="0 0 13 13" fill="none" xmlns="http://www.w3.org/2000/svg">
<path d="M11.3425 5.95817C11.0934 3.69942 9.30044 1.9065 7.04169 1.65734V0.541504H5.95835V1.65734C5.42752 1.71692 4.92377 1.86317 4.45794 2.07984L5.28669 2.90859C5.66585 2.77859 6.07752 2.70817 6.50002 2.70817C8.59627 2.70817 10.2917 4.40359 10.2917 6.49984C10.2917 6.92775 10.2213 7.334 10.0913 7.71317L10.92 8.54192C11.1367 8.07609 11.2829 7.57234 11.3425 7.0415H12.4584V5.95817H11.3425ZM1.62502 2.31275L2.73002 3.41775C2.15044 4.12734 1.76585 4.99942 1.65752 5.95817H0.541687V7.0415H1.65752C1.90669 9.30025 3.6996 11.0932 5.95835 11.3423V12.4582H7.04169V11.3423C8.00044 11.234 8.87252 10.8494 9.5821 10.2698L10.6871 11.3748L11.4509 10.6111L2.38877 1.549L1.62502 2.31275ZM8.81294 9.50067C8.17377 9.99359 7.3721 10.2915 6.50002 10.2915C4.40377 10.2915 2.70835 8.59609 2.70835 6.49984C2.70835 5.62775 3.00627 4.82609 3.49919 4.18692L8.81294 9.50067Z" fill="white"/>
</svg>
