<svg width="84" height="95" viewBox="0 0 84 95" fill="none" xmlns="http://www.w3.org/2000/svg">
<path d="M39.5 1.44337C41.047 0.550211 42.953 0.550212 44.5 1.44338L75.007 19.0566C76.554 19.9498 77.507 21.6004 77.507 23.3868V58.6133C77.507 60.3996 76.554 62.0502 75.007 62.9434L44.5 80.5566C42.953 81.4498 41.047 81.4498 39.5 80.5566L8.99296 62.9434C7.44595 62.0502 6.49296 60.3996 6.49296 58.6132V23.3867C6.49296 21.6004 7.44595 19.9498 8.99296 19.0566L39.5 1.44337Z" fill="#4200FF" stroke="white" stroke-linecap="round" stroke-linejoin="round" stroke-dasharray="49 6 6 6"/>
<path d="M39.5 14.4434C41.047 13.5502 42.953 13.5502 44.5 14.4434L75.007 32.0566C76.554 32.9498 77.507 34.6004 77.507 36.3868V71.6133C77.507 73.3996 76.554 75.0502 75.007 75.9434L44.5 93.5566C42.953 94.4498 41.047 94.4498 39.5 93.5566L8.99296 75.9434C7.44595 75.0502 6.49296 73.3996 6.49296 71.6132V36.3867C6.49296 34.6004 7.44595 32.9498 8.99296 32.0566L39.5 14.4434Z" fill="#4200FF" stroke="white" stroke-linecap="round" stroke-linejoin="round" stroke-dasharray="49 6 6 6"/>
<path d="M39.5 6.44338C41.047 5.55021 42.953 5.55021 44.5 6.44338L75.8731 24.5566C77.4201 25.4498 78.3731 27.1004 78.3731 28.8868V65.1133C78.3731 66.8996 77.4201 68.5502 75.8731 69.4434L44.5 87.5566C42.953 88.4498 41.047 88.4498 39.5 87.5566L8.12693 69.4434C6.57993 68.5502 5.62693 66.8996 5.62693 65.1132V28.8867C5.62693 27.1004 6.57993 25.4498 8.12693 24.5566L39.5 6.44338Z" fill="url(#paint0_linear_609:110)"/>
<path d="M56 47.5L41.5 62L41.5 33L56 47.5Z" fill="url(#paint1_linear_609:110)"/>
<path d="M41.9998 39.0405V55.9596L50.4594 47.5L41.9998 39.0405Z" fill="url(#paint2_linear_609:110)" stroke="white"/>
<path d="M27 47.5L41.5 62L41.5 33L27 47.5Z" fill="url(#paint3_linear_609:110)"/>
<path d="M41.0002 39.0405V55.9596L32.5406 47.5L41.0002 39.0405Z" fill="url(#paint4_linear_609:110)" stroke="white"/>
<defs>
<linearGradient id="paint0_linear_609:110" x1="41.5" y1="-6" x2="41.5" y2="53" gradientUnits="userSpaceOnUse">
<stop stop-color="#E9E9E9"/>
<stop offset="0.213542" stop-color="#646D83"/>
<stop offset="1" stop-color="#2E3A59"/>
</linearGradient>
<linearGradient id="paint1_linear_609:110" x1="41.5" y1="33" x2="48.75" y2="54.75" gradientUnits="userSpaceOnUse">
<stop stop-color="#E9E9E9"/>
<stop offset="1" stop-color="#2E3A59"/>
</linearGradient>
<linearGradient id="paint2_linear_609:110" x1="42.5739" y1="40.5186" x2="46.3332" y2="50.7223" gradientUnits="userSpaceOnUse">
<stop stop-color="#E9E9E9"/>
<stop offset="1" stop-color="#2E3A59"/>
</linearGradient>
<linearGradient id="paint3_linear_609:110" x1="41.5" y1="33" x2="34.25" y2="54.75" gradientUnits="userSpaceOnUse">
<stop stop-color="#E9E9E9"/>
<stop offset="1" stop-color="#2E3A59"/>
</linearGradient>
<linearGradient id="paint4_linear_609:110" x1="40.4261" y1="40.5186" x2="36.6668" y2="50.7223" gradientUnits="userSpaceOnUse">
<stop stop-color="#E9E9E9"/>
<stop offset="1" stop-color="#2E3A59"/>
</linearGradient>
</defs>
</svg>
