<svg width="17" height="17" viewBox="0 0 17 17" fill="none" xmlns="http://www.w3.org/2000/svg">
<path d="M8.51255 0.381917C8.00935 0.381917 7.60291 0.78636 7.60291 1.2871L7.59646 7.55917L1.28704 7.55917C0.783839 7.55917 0.377404 7.96362 0.377404 8.46436C0.377404 8.96509 0.783839 9.36954 1.28704 9.36954L7.59646 9.36954L7.59646 15.648C7.59646 16.1488 8.00289 16.5532 8.5061 16.5532C9.0093 16.5532 9.41574 16.1488 9.41574 15.648L9.41574 9.36954L15.7252 9.36954C16.2284 9.36954 16.6348 8.96509 16.6348 8.46436C16.6348 7.96362 16.2284 7.55917 15.7252 7.55917L9.41574 7.55917L9.41574 1.28068C9.41574 0.79278 9.00285 0.381917 8.51255 0.381917Z" fill="url(#paint0_linear_470:231)"/>
<defs>
<linearGradient id="paint0_linear_470:231" x1="1.8803" y1="10.3354" x2="15.0686" y2="11.4043" gradientUnits="userSpaceOnUse">
<stop stop-color="#314AB4"/>
<stop offset="1" stop-color="#2FB5F3"/>
</linearGradient>
</defs>
</svg>
