<svg width="17" height="17" viewBox="0 0 17 17" fill="none" xmlns="http://www.w3.org/2000/svg">
<path d="M8.51256 0.381922C8.00935 0.381922 7.60292 0.786365 7.60292 1.2871L7.59646 7.55917L1.28704 7.55917C0.783839 7.55917 0.377404 7.96362 0.377404 8.46436C0.377404 8.96509 0.783839 9.36954 1.28704 9.36954L7.59646 9.36954L7.59646 15.648C7.59646 16.1488 8.0029 16.5532 8.5061 16.5532C9.00931 16.5532 9.41574 16.1488 9.41574 15.648L9.41574 9.36954L15.7252 9.36954C16.2284 9.36954 16.6348 8.96509 16.6348 8.46436C16.6348 7.96362 16.2284 7.55917 15.7252 7.55917L9.41574 7.55917L9.41574 1.28068C9.41574 0.792784 9.00286 0.381922 8.51256 0.381922Z" fill="white"/>
</svg>
