<svg width="21" height="21" viewBox="0 0 21 21" fill="none" xmlns="http://www.w3.org/2000/svg">
<path d="M13.5625 12.25H12.8712L12.6262 12.0137C13.4837 11.0162 14 9.72125 14 8.3125C14 5.17125 11.4537 2.625 8.3125 2.625C5.17125 2.625 2.625 5.17125 2.625 8.3125C2.625 11.4537 5.17125 14 8.3125 14C9.72125 14 11.0162 13.4837 12.0137 12.6262L12.25 12.8712V13.5625L16.625 17.9287L17.9287 16.625L13.5625 12.25V12.25ZM8.3125 12.25C6.13375 12.25 4.375 10.4912 4.375 8.3125C4.375 6.13375 6.13375 4.375 8.3125 4.375C10.4912 4.375 12.25 6.13375 12.25 8.3125C12.25 10.4912 10.4912 12.25 8.3125 12.25Z" fill="white"/>
</svg>
