<svg width="18" height="18" viewBox="0 0 18 18" fill="none" xmlns="http://www.w3.org/2000/svg">
<path d="M12.5622 11.0006H11.7683L11.4869 10.7306C12.6928 9.33063 13.3159 7.42063 12.9742 5.39063C12.5019 2.61063 10.1705 0.390626 7.35669 0.0506256C3.10585 -0.469374 -0.471687 3.09063 0.050875 7.32063C0.39255 10.1206 2.62349 12.4406 5.41718 12.9106C7.45718 13.2506 9.37659 12.6306 10.7835 11.4306L11.0548 11.7106V12.5006L15.3258 16.7506C15.7378 17.1606 16.4111 17.1606 16.8231 16.7506C17.2351 16.3406 17.2351 15.6706 16.8231 15.2606L12.5622 11.0006ZM6.53265 11.0006C4.03038 11.0006 2.01048 8.99063 2.01048 6.50063C2.01048 4.01063 4.03038 2.00063 6.53265 2.00063C9.03491 2.00063 11.0548 4.01063 11.0548 6.50063C11.0548 8.99063 9.03491 11.0006 6.53265 11.0006Z" fill="white"/>
</svg>
